<svg width="96" height="96" xmlns="http://www.w3.org/2000/svg" xmlns:xlink="http://www.w3.org/1999/xlink" xml:space="preserve" overflow="hidden"><g transform="translate(123 -116)"><path d="M-99 183.5-51 183.5-51 202.5-99 202.5Z" fill="#FFFFFF"/><path d="M-57 154.5-57 164.5-93 164.5-93 130.5-71 130.5-71 144.5-57 144.5-57 154.5ZM-65 130.9-58.1 138.5-65 138.5-65 130.9ZM-109 168.5C-111.2 168.5-113 166.7-113 164.5-113 162.3-111.2 160.5-109 160.5-106.8 160.5-105 162.3-105 164.5-105 166.7-106.8 168.5-109 168.5ZM-35 154.5-51 154.5-51 137.3-62.7 124.5-99 124.5-99 154.5-115 154.5C-117.2 154.5-119 156.3-119 158.5L-119 198.5C-119 200.7-117.2 202.5-115 202.5L-103 202.5-103 179.5-47 179.5-47 202.5-35 202.5C-32.8 202.5-31 200.7-31 198.5L-31 158.5C-31 156.3-32.8 154.5-35 154.5Z" fill="#FFFFFF"/><path d="M-89 148.5-61 148.5-61 152.5-89 152.5Z" fill="#FFFFFF"/><path d="M-89 140.5-75 140.5-75 144.5-89 144.5Z" fill="#FFFFFF"/><path d="M-89 156.5-61 156.5-61 160.5-89 160.5Z" fill="#FFFFFF"/></g></svg>