<svg width="96" height="96" xmlns="http://www.w3.org/2000/svg" xmlns:xlink="http://www.w3.org/1999/xlink" xml:space="preserve" overflow="hidden"><g transform="translate(128 -394)"><path d="M-60 424.2C-62.4 424.2-64.4 422.2-64.3 419.7-64.3 417.3-62.3 415.3-59.9 415.3-57.5 415.3-55.5 417.3-55.5 419.7-55.5 420.9-56 422-56.8 422.8-57.7 423.7-58.8 424.2-60 424.2ZM-64.3 410.3C-66.5 411.1-68.2 412.8-69.3 414.8-70.7 417.5-70.9 420.6-69.8 423.4L-65 433.8-61.8 440.4C-61.5 441.1-60.8 441.5-60 441.5-59.2 441.5-58.5 441.1-58.2 440.4L-55 433.8-50.2 423.5C-49.7 422.3-49.5 421-49.5 419.7-49.5 412.7-56.7 407.4-64.3 410.3Z" fill="#FFFFFF"/><path d="M-82 466.8-98 458.8-98 426.2-82 434.2-82 466.8ZM-102 458.8-114 464.8-114 432.2-102 426.2-102 458.8ZM-46.6 425.2-46.6 425.2-49.1 430.6-46 432.2-46 464.8-58 458.8-58 445.5-62 445.5-62 458.8-78 466.8-78 434.2-70.9 430.6-73.4 425.2-80 428.5-100 418.5-120 428.5-120 474.5-100 464.5-80 474.5-60 464.5-40 474.5-40 428.5-46.6 425.2Z" fill="#FFFFFF"/></g></svg>