<svg width="674" height="674" xmlns="http://www.w3.org/2000/svg" xmlns:xlink="http://www.w3.org/1999/xlink" xml:space="preserve" overflow="hidden"><g transform="translate(-235 -37)"><path d="M572 345.917C536.896 345.917 508.812 317.833 508.812 282.729 508.812 247.625 536.896 219.542 572 219.542 607.104 219.542 635.188 247.625 635.188 282.729 635.188 317.833 607.104 345.917 572 345.917ZM572 135.292C523.556 135.292 477.921 159.163 450.54 199.883 423.158 239.902 417.542 291.154 435.094 336.79L501.792 484.227 559.363 604.985C561.469 609.9 566.383 612.708 572 612.708 577.617 612.708 582.531 609.9 584.638 604.985L642.208 484.227 708.906 336.79C726.458 291.154 720.842 239.902 693.46 199.883 666.079 159.163 620.444 135.292 572 135.292Z" fill="#FF0000"/></g></svg>