<svg width="96" height="96" xmlns="http://www.w3.org/2000/svg" xmlns:xlink="http://www.w3.org/1999/xlink" xml:space="preserve" overflow="hidden"><g transform="translate(139 -260)"><path d="M-99.8 289.2C-99 288.4-98.5 287.3-98.5 286.1-98.5 284.9-99 283.8-99.8 283L-113.6 269.3C-114.4 268.5-115.5 268-116.6 268-117.7 268-118.9 268.5-119.7 269.3L-121.2 270.8-101.3 290.7-99.8 289.2Z" fill="#FFFFFF"/><path d="M-79.7 324.5C-80.1 324.9-80.7 325.1-81.2 325.1-81.7 325.1-82.3 324.9-82.7 324.5L-107.5 299.8C-107.9 299.4-108.1 298.8-108.1 298.3-108.1 297.8-107.9 297.2-107.5 296.8L-104.4 293.8-124.3 273.9C-125.6 275.2-126.8 276.4-127.6 277.2-129.6 279.1-130.8 281.6-130.9 284.3-131.2 288.8-130.1 293.1-128.6 297.3-127 301-124.9 304.5-122.6 307.8-114.4 320.1-104.1 330.8-92.1 339.3-90.1 340.8-88 342.1-85.8 343.3-80.8 345.8-75.5 347.6-69.8 348-66 348.3-62.2 346.8-59.6 344L-56.9 341.3-76.7 321.4-79.7 324.5Z" fill="#FFFFFF"/><path d="M-52.3 330.6-66.1 316.8C-66.9 316-68 315.5-69.2 315.5-70.4 315.5-71.5 316-72.3 316.8L-73.8 318.4-53.9 338.3-52.4 336.8C-51.6 336-51.1 334.9-51.1 333.7-51.1 332.5-51.5 331.4-52.3 330.6Z" fill="#FFFFFF"/></g></svg>